<?xml version="1.0" encoding="UTF-8" standalone="no"?><!DOCTYPE svg PUBLIC "-//W3C//DTD SVG 1.1//EN" "http://www.w3.org/Graphics/SVG/1.1/DTD/svg11.dtd"><svg width="100%" height="100%" viewBox="0 0 1000 1000" version="1.1" xmlns="http://www.w3.org/2000/svg" xmlns:xlink="http://www.w3.org/1999/xlink" xml:space="preserve" xmlns:serif="http://www.serif.com/" style="fill-rule:evenodd;clip-rule:evenodd;stroke-linejoin:round;stroke-miterlimit:2;"><g><path d="M423.529,714.269l-352.941,0.014c-38.801,-0.023 -70.58,-32.907 -70.588,-71.457c0.031,-38.536 31.813,-71.397 70.603,-71.411l141.643,0c38.613,-0.276 70.106,-33.066 70.121,-71.429l0,-428.572c0.024,-38.531 31.792,-71.39 70.574,-71.414c38.788,0.016 70.564,32.877 70.588,71.414l-0,201.991c0.023,37.999 33.42,71.391 70.571,71.414c38.798,-0.016 70.574,-32.887 70.593,-71.429l-0,-201.976c0.023,-38.537 31.799,-71.398 70.587,-71.414c38.789,0.016 70.569,32.875 70.602,71.414l0,857.157c-0.023,38.545 -31.809,71.41 -70.602,71.429c-38.793,-0.019 -70.573,-32.889 -70.587,-71.429l-0,-71.429c-0,-78.863 -63.258,-142.873 -141.164,-142.873Z" style="fill:#ffc514;fill-rule:nonzero;"/><path d="M407.399,975.251c55.642,-0 100.75,-45.647 100.75,-101.948c-0,-56.306 -45.108,-101.948 -100.75,-101.948c-55.642,0 -100.748,45.642 -100.748,101.948c0,56.301 45.106,101.948 100.748,101.948Z" style="fill:#ffc514;fill-rule:nonzero;"/></g></svg>