<?xml version="1.0" encoding="UTF-8" standalone="no"?><!DOCTYPE svg PUBLIC "-//W3C//DTD SVG 1.1//EN" "http://www.w3.org/Graphics/SVG/1.1/DTD/svg11.dtd"><svg width="100%" height="100%" viewBox="0 0 51 51" version="1.1" xmlns="http://www.w3.org/2000/svg" xmlns:xlink="http://www.w3.org/1999/xlink" xml:space="preserve" xmlns:serif="http://www.serif.com/" style="fill-rule:evenodd;clip-rule:evenodd;stroke-linejoin:round;stroke-miterlimit:2;"><path d="M11.6,7.25l0.9,-0c6.371,0.176 11.533,5.427 11.6,11.8l-0,0.2c0.004,4.027 -2.031,7.794 -5.4,10c-1.948,1.316 -4.249,2.013 -6.6,2l-0.2,0c-1.92,-0.013 -3.808,-0.494 -5.5,-1.4l-0,13.3l-0.1,0.1l-6.2,0l-0.1,-0.1l-0,-24.3c-0,-3 1.3,-5.8 3.9,-8.4c2.077,-1.988 4.825,-3.13 7.7,-3.2Zm0.9,6.4l-0.7,-0c-1.9,-0 -3.4,1 -4.7,3c-0.396,0.85 -0.634,1.765 -0.7,2.7c-0,2.198 1.295,4.2 3.3,5.1c0.726,0.319 1.508,0.489 2.3,0.5l0.3,-0c2.094,0.011 4.012,-1.203 4.9,-3.1c0.385,-0.742 0.591,-1.564 0.6,-2.4l0,-0.3c-0.016,-2.087 -1.221,-3.991 -3.1,-4.9c-0.705,-0.292 -1.444,-0.494 -2.2,-0.6Z" style="fill:#4088e6;fill-rule:nonzero;"/><path d="M38,7.25l0.9,-0c6.371,0.176 11.533,5.427 11.6,11.8l-0,0.2c0.004,4.027 -2.031,7.794 -5.4,10c-1.948,1.316 -4.249,2.013 -6.6,2l-0.2,0c-1.92,-0.013 -3.808,-0.494 -5.5,-1.4l-0,13.3l-0.1,0.1l-6.2,-0l-0.1,-0.1l-0,-24.3c-0,-3 1.3,-5.8 3.9,-8.4c2.077,-1.988 4.825,-3.13 7.7,-3.2Zm0.9,6.4l-0.7,-0c-1.9,-0 -3.4,1 -4.7,3c-0.396,0.85 -0.634,1.765 -0.7,2.7c-0,2.198 1.295,4.2 3.3,5.1c0.726,0.319 1.508,0.489 2.3,0.5l0.3,-0c2.094,0.011 4.012,-1.203 4.9,-3.1c0.385,-0.742 0.591,-1.564 0.6,-2.4l0,-0.3c-0.016,-2.087 -1.221,-3.991 -3.1,-4.9c-0.705,-0.292 -1.444,-0.494 -2.2,-0.6Z" style="fill:#4088e6;fill-rule:nonzero;"/><path d="M12.1,10.95c4.334,-0 7.9,3.566 7.9,7.9c-0,4.334 -3.566,7.9 -7.9,7.9c-4.334,-0 -7.9,-3.566 -7.9,-7.9c-0,-0.017 -0,-0.033 -0,-0.05c-0,-4.307 3.543,-7.85 7.85,-7.85c0.017,-0 0.033,-0 0.05,-0Z" style="fill:#fff;fill-rule:nonzero;"/><path d="M11.8,13.75c-0.547,0.003 -1.089,0.104 -1.6,0.3c0.831,0.166 1.435,0.903 1.435,1.75c-0,0.979 -0.806,1.785 -1.785,1.785c-0.118,-0 -0.235,-0.012 -0.35,-0.035c-0.686,-0.108 -1.242,-0.623 -1.4,-1.3c-0.159,0.432 -0.241,0.888 -0.241,1.348c0,2.134 1.756,3.89 3.89,3.89c2.134,-0 3.89,-1.756 3.89,-3.89c0,-1.624 -1.016,-3.084 -2.539,-3.648c-0.423,-0.123 -0.86,-0.19 -1.3,-0.2Z" style="fill:#2c3c45;fill-rule:nonzero;"/><path d="M38.2,10.95c4.334,-0 7.9,3.566 7.9,7.9c-0,4.334 -3.566,7.9 -7.9,7.9c-4.334,-0 -7.9,-3.566 -7.9,-7.9c-0,-0.017 -0,-0.033 -0,-0.05c-0,-4.307 3.543,-7.85 7.85,-7.85c0.017,-0 0.033,-0 0.05,-0Z" style="fill:#fff;fill-rule:nonzero;"/><path d="M38,13.75c-0.547,0.003 -1.089,0.104 -1.6,0.3c0.831,0.166 1.435,0.903 1.435,1.75c-0,0.979 -0.806,1.785 -1.785,1.785c-0.118,-0 -0.235,-0.012 -0.35,-0.035c-0.686,-0.108 -1.242,-0.623 -1.4,-1.3c-0.159,0.432 -0.241,0.888 -0.241,1.348c0,2.134 1.756,3.89 3.89,3.89c2.134,-0 3.89,-1.756 3.89,-3.89c0,-1.624 -1.016,-3.084 -2.539,-3.648c-0.424,-0.115 -0.861,-0.182 -1.3,-0.2Z" style="fill:#2c3c45;fill-rule:nonzero;"/><rect x="0" y="0" width="50.5" height="50.5" style="fill:none;"/></svg>